<?xml version="1.0" encoding="UTF-8" standalone="no"?>
<!-- Created with Inkscape (http://www.inkscape.org/) -->

<svg
   xmlns:dc="http://purl.org/dc/elements/1.1/"
   xmlns:cc="http://creativecommons.org/ns#"
   xmlns:rdf="http://www.w3.org/1999/02/22-rdf-syntax-ns#"
   xmlns:svg="http://www.w3.org/2000/svg"
   xmlns="http://www.w3.org/2000/svg"
   xmlns:xlink="http://www.w3.org/1999/xlink"
   xmlns:sodipodi="http://sodipodi.sourceforge.net/DTD/sodipodi-0.dtd"
   xmlns:inkscape="http://www.inkscape.org/namespaces/inkscape"
   width="16"
   height="16"
   id="svg2"
   sodipodi:version="0.32"
   inkscape:version="0.91 r"
   sodipodi:docname="button-share.svg"
   version="1.0"
   inkscape:output_extension="org.inkscape.output.svg.inkscape">
  <defs
     id="defs4">
    <linearGradient
       inkscape:collect="always"
       id="linearGradient2555">
      <stop
         style="stop-color: rgb(255, 255, 255); stop-opacity: 1;"
         offset="0"
         id="stop2557" />
      <stop
         style="stop-color: rgb(255, 255, 255); stop-opacity: 0;"
         offset="1"
         id="stop2559" />
    </linearGradient>
    <linearGradient
       inkscape:collect="always"
       xlink:href="#linearGradient2555"
       id="linearGradient2449"
       gradientUnits="userSpaceOnUse"
       gradientTransform="matrix(-0.5914583,0,0,0.5914584,210.0216,142.2324)"
       x1="-344.15295"
       y1="274.711"
       x2="-395.84943"
       y2="425.39993" />
  </defs>
  <sodipodi:namedview
     id="base"
     pagecolor="#ffffff"
     bordercolor="#666666"
     borderopacity="1.0"
     inkscape:pageopacity="0.0"
     inkscape:pageshadow="2"
     inkscape:zoom="23.49375"
     inkscape:cx="6.0902779"
     inkscape:cy="16.374512"
     inkscape:document-units="px"
     inkscape:current-layer="layer1"
     inkscape:window-width="1920"
     inkscape:window-height="1024"
     inkscape:window-x="0"
     inkscape:window-y="30"
     showgrid="false"
     inkscape:window-maximized="1" />
  <metadata
     id="metadata7">
    <rdf:RDF>
      <cc:Work
         rdf:about="">
        <dc:format>image/svg+xml</dc:format>
        <dc:type
           rdf:resource="http://purl.org/dc/dcmitype/StillImage" />
        <dc:title></dc:title>
        <dc:creator>
          <cc:Agent>
            <dc:title />
          </cc:Agent>
        </dc:creator>
        <dc:subject>
          <rdf:Bag />
        </dc:subject>
        <cc:license
           rdf:resource="http://creativecommons.org/publicdomain/zero/1.0/" />
        <dc:description />
        <dc:contributor>
          <cc:Agent>
            <dc:title />
          </cc:Agent>
        </dc:contributor>
      </cc:Work>
      <cc:License
         rdf:about="http://creativecommons.org/publicdomain/zero/1.0/">
        <cc:permits
           rdf:resource="http://creativecommons.org/ns#Reproduction" />
        <cc:permits
           rdf:resource="http://creativecommons.org/ns#Distribution" />
        <cc:permits
           rdf:resource="http://creativecommons.org/ns#DerivativeWorks" />
      </cc:License>
    </rdf:RDF>
  </metadata>
  <g
     inkscape:label="Layer 1"
     inkscape:groupmode="layer"
     id="layer1"
     transform="translate(-373.642,-558.344)">
    <path
       style="fill:#fcfcfc;fill-opacity:1;stroke:none"
       d="m 386.51795,558.34422 a 2.6818529,3.0170843 0 0 0 -2.67546,2.8731 l -5.19785,2.84057 a 2.6818529,3.0170843 0 0 0 -1.87892,-0.86814 2.6818529,3.0170843 0 0 0 -2.68183,3.01716 2.6818529,3.0170843 0 0 0 2.68183,3.01699 2.6818529,3.0170843 0 0 0 1.80079,-0.78594 l 5.27208,2.96555 a 2.6818529,3.0170843 0 0 0 2.67936,2.94028 2.6818529,3.0170843 0 0 0 2.68182,-3.01699 2.6818529,3.0170843 0 0 0 -2.68182,-3.01717 2.6818529,3.0170843 0 0 0 -1.92559,0.9217 l -5.15047,-2.89713 a 2.6818529,3.0170843 0 0 0 0.006,-0.12728 2.6818529,3.0170843 0 0 0 -3.6e-4,-0.009 l 5.10415,-2.78947 a 2.6818529,3.0170843 0 0 0 1.96661,0.96995 2.6818529,3.0170843 0 0 0 2.68182,-3.01717 2.6818529,3.0170843 0 0 0 -2.68182,-3.01699 z"
       id="path15787"
       inkscape:connector-curvature="0" />
  </g>
</svg>
