<?xml version="1.0" encoding="UTF-8" standalone="no"?>
<!-- Created with Inkscape (http://www.inkscape.org/) -->
<svg id="svg2" xmlns:rdf="http://www.w3.org/1999/02/22-rdf-syntax-ns#" xmlns="http://www.w3.org/2000/svg" height="16" width="16" version="1.1" xmlns:cc="http://creativecommons.org/ns#" xmlns:dc="http://purl.org/dc/elements/1.1/">
 <metadata id="metadata7">
  <rdf:RDF>
   <cc:Work rdf:about="">
    <dc:format>image/svg+xml</dc:format>
    <dc:type rdf:resource="http://purl.org/dc/dcmitype/StillImage"/>
    <dc:title/>
   </cc:Work>
  </rdf:RDF>
 </metadata>
 <path id="path2987" style="baseline-shift:baseline;block-progression:tb;color:#000000;direction:ltr;text-indent:0;text-align:start;enable-background:accumulate;text-transform:none;" fill="#FFF" d="M2.78125,0.96875a2.0002,2.0002,0,0,0,-1.1875,3.4375l3.59375,3.59375-3.625,3.59375a2.0002,2.0002,0,1,0,2.8125,2.8125l3.625-3.59375,3.59375,3.59375a2.0002,2.0002,0,1,0,2.8125,-2.8125l-3.59375-3.59375,3.5625-3.59375a2.0002,2.0002,0,0,0,-1.4375,-3.4375,2.0002,2.0002,0,0,0,-1.375,0.625l-3.5625,3.59375-3.59375-3.59375a2.0002,2.0002,0,0,0,-1.4375,-0.625,2.0002,2.0002,0,0,0,-0.1875,0z"/>
</svg>
