<?xml version="1.0" encoding="UTF-8" standalone="no"?>
<!-- Created with Inkscape (http://www.inkscape.org/) -->

<svg
   xmlns:dc="http://purl.org/dc/elements/1.1/"
   xmlns:cc="http://creativecommons.org/ns#"
   xmlns:rdf="http://www.w3.org/1999/02/22-rdf-syntax-ns#"
   xmlns:svg="http://www.w3.org/2000/svg"
   xmlns="http://www.w3.org/2000/svg"
   xmlns:sodipodi="http://sodipodi.sourceforge.net/DTD/sodipodi-0.dtd"
   xmlns:inkscape="http://www.inkscape.org/namespaces/inkscape"
   width="64"
   height="64"
   viewBox="0 0 64 64.000002"
   id="svg4140"
   version="1.1"
   inkscape:version="0.91 r13725"
   inkscape:export-filename="/home/joern/GIT/cldx.github.io/images/github.png"
   inkscape:export-xdpi="90"
   inkscape:export-ydpi="90"
   sodipodi:docname="social-icons.svg">
  <defs
     id="defs4142" />
  <sodipodi:namedview
     id="base"
     pagecolor="#ffffff"
     bordercolor="#666666"
     borderopacity="1.0"
     inkscape:pageopacity="0.0"
     inkscape:pageshadow="2"
     inkscape:zoom="2.8"
     inkscape:cx="-23.268398"
     inkscape:cy="20.525048"
     inkscape:document-units="px"
     inkscape:current-layer="layer1"
     showgrid="false"
     units="px"
     inkscape:window-width="1366"
     inkscape:window-height="699"
     inkscape:window-x="0"
     inkscape:window-y="32"
     inkscape:window-maximized="1" />
  <metadata
     id="metadata4145">
    <rdf:RDF>
      <cc:Work
         rdf:about="">
        <dc:format>image/svg+xml</dc:format>
        <dc:type
           rdf:resource="http://purl.org/dc/dcmitype/StillImage" />
        <dc:title></dc:title>
      </cc:Work>
    </rdf:RDF>
  </metadata>
  <g
     inkscape:label="Ebene 1"
     inkscape:groupmode="layer"
     id="layer1"
     transform="translate(0,-988.3622)">
    <path
       inkscape:connector-curvature="0"
       style="fill:#73c8a9;fill-opacity:1"
       d="m -75.379628,1029.6437 0,-29.092 -7.692536,0 0,-10.47458 7.692536,0 0,-8.9465 c 0,-7.0306 4.54401,-13.4867 15.014404,-13.4867 4.239291,0 7.374056,0.40668 7.374056,0.40668 l -0.247009,9.78142 c 0,0 -3.19696,-0.031 -6.685609,-0.031 -3.775784,0 -4.380727,1.74 -4.380727,4.6281 l 0,7.6482 11.366472,0 -0.494565,10.47458 -10.871907,0 0,29.092 -11.075115,0"
       id="path6" />
    <path
       id="path4772"
       d="m -40.969515,1057.7008 q 0,-5.2905 3.761323,-8.9691 3.761339,-3.6786 9.052004,-3.6786 5.621339,0 9.175992,3.8853 3.968008,-0.8265 8.101343,-2.9761 -1.322673,4.464 -5.538673,7.0265 3.554671,-0.496 7.2746687,-2.0665 -2.5626687,3.8853 -6.3653307,6.6958 l 0,1.5707 q 0,9.0106 -3.968008,16.8638 -3.967992,8.0188 -12.565319,13.6402 -8.597342,5.6213 -19.592011,5.6213 -10.746659,0 -19.509331,-5.704 1.322674,0.1647 3.141333,0.1647 8.845337,0 15.706669,-5.3733 -4.298664,-0.083 -7.481337,-2.6454 -3.182659,-2.5624 -4.340005,-6.2826 0.826674,0.3306 2.314677,0.3306 1.488002,0 3.306662,-0.4133 -4.298664,-0.9091 -7.192005,-4.3811 -2.893326,-3.472 -2.893326,-8.2665 2.397325,1.3225 5.704003,1.5705 -5.704003,-3.968 -5.704003,-10.664 0,-3.1413 1.735996,-6.2826 10.416003,12.6479 26.287999,13.1439 -0.413321,-1.4053 -0.413321,-2.8107 z"
       inkscape:connector-curvature="0"
       style="fill:#73c8a9;fill-opacity:1" />
    <path
       id="path4898"
       d="m 16.3727,1109.8503 c -2.17799,0 -4.30802,0.3974 -6.4699,0.6956 -3.32305,0.6551 -6.32714,1.9903 -8.9028,4.6605 l 0,7.7903 29.26733,0 c 0.0954,0 0.12727,-0.6366 0.12727,-0.9858 -0.0333,-2.2729 -1.54394,-4.3393 -3.37039,-5.9135 -2.59104,-2.1952 -5.58193,-3.9743 -8.4579,-6.1043 -0.74666,-0.1118 -1.47783,-0.1428 -2.19361,-0.1428 z m -15.37258,-15.469 0,15.7392 c 3.87742,-2.3055 7.45428,-2.5771 11.36644,-2.703 1.20852,0 2.25743,-0.033 3.14601,-0.079 -0.62012,-0.8292 -1.22558,-1.7171 -1.81252,-2.6393 -1.35056,-2.1455 -1.03317,-4.7537 -0.0629,-7.0746 -4.56111,0.5883 -8.75966,-0.2547 -12.63708,-3.2433 z m 11.36644,-24.8473 c -1.11236,0.015 -2.2573,0.27 -3.32232,0.7614 -2.16188,1.0502 -3.7516,2.7673 -4.33999,5.3583 -0.44562,2.6727 -0.33385,5.5168 0.33373,8.3944 0.81036,3.2765 2.41812,6.3907 5.32739,8.6643 2.17581,1.5415 5.49886,1.7652 8.29648,1.0168 2.17969,-0.652 3.73755,-2.7183 4.59611,-4.9602 0.76313,-2.4319 0.49442,-5.1977 -0.17317,-7.9959 -0.86012,-3.577 -2.59261,-7.0088 -5.6455,-9.6161 -1.40032,-1.0827 -3.21273,-1.671 -5.07273,-1.623 z m -11.36644,-8.5361 0,10.9206 c 3.87742,-3.7357 10.14243,-6.1518 15.8974,-6.1518 l 19.07683,0 -4.84834,5.5633 -5.50043,0 c 1.33505,1.2894 2.55761,2.0983 3.54356,3.7362 1.25513,2.1478 1.92357,4.4526 1.95529,7.1072 -0.0178,2.5586 -0.63659,5.3103 -2.2263,7.6949 -1.30176,1.9072 -3.16163,3.5133 -5.11862,5.0393 -1.28929,1.2901 -2.41642,2.3521 -2.51185,4.4044 0.0155,1.5276 1.01913,2.8923 2.38458,3.878 2.27353,1.7807 4.22895,3.2432 6.37448,5.0877 2.05084,1.7806 3.95879,3.9572 5.18377,6.629 1.04952,2.4296 1.06502,5.4988 0.33543,8.09 l 27.45408,0 0,-39.7436 -11.12813,0 0,12.7178 -4.76927,0 0,-12.7178 -12.71797,0 0,-4.7693 12.71785,0 0,-12.7171 4.76927,0 0,12.7171 11.12825,0 0,-17.4859 -61.99988,0 z"
       inkscape:connector-curvature="0"
       style="fill:#73c8a9;fill-opacity:1" />
    <path
       id="path5089"
       d="m 24.84615,1029.9007 q 0,1.4904 -0.46574,3.0553 -0.46575,1.5649 -1.60216,2.8317 -1.13642,1.2668 -2.70133,1.2668 -1.5649,0 -2.70132,-1.2668 -1.13642,-1.2669 -1.60216,-2.8317 -0.46575,-1.5649 -0.46575,-3.0553 0,-1.4904 0.46575,-3.0553 0.46574,-1.5649 1.60216,-2.8317 1.13642,-1.2669 2.70132,-1.2669 1.56491,0 2.70133,1.2669 1.13641,1.2668 1.60216,2.8317 0.46574,1.5649 0.46574,3.0553 z m 23.84616,0 q 0,1.4904 -0.46575,3.0553 -0.46574,1.5649 -1.60216,2.8317 -1.13642,1.2668 -2.70132,1.2668 -1.56491,0 -2.70133,-1.2668 -1.13641,-1.2669 -1.60216,-2.8317 -0.46574,-1.5649 -0.46574,-3.0553 0,-1.4904 0.46574,-3.0553 0.46575,-1.5649 1.60216,-2.8317 1.13642,-1.2669 2.70133,-1.2669 1.5649,0 2.70132,1.2669 1.13642,1.2668 1.60216,2.8317 0.46575,1.5649 0.46575,3.0553 z m 5.96154,0 q 0,-4.4712 -2.57092,-7.6011 -2.57091,-3.1298 -6.96755,-3.1298 -1.52764,0 -7.26562,0.7826 -2.64543,0.4097 -5.84976,0.4097 -3.20433,0 -5.84976,-0.4097 -5.66346,-0.7826 -7.26562,-0.7826 -4.39664,0 -6.96755,3.1298 -2.57092,3.1298 -2.57092,7.6011 0,3.2788 1.19231,5.7193 1.19231,2.4405 3.01803,3.8378 1.82572,1.3972 4.54567,2.2356 2.71996,0.8383 5.21635,1.0991 2.49639,0.2608 5.55168,0.2608 l 6.25962,0 q 3.05529,0 5.55168,-0.2608 2.49639,-0.2608 5.21635,-1.0991 2.71995,-0.8384 4.54567,-2.2356 1.82572,-1.3973 3.01803,-3.8378 1.19231,-2.4405 1.19231,-5.7193 z M 63,1023.3429 q 0,7.7128 -2.27284,12.333 -1.41586,2.869 -3.93089,4.9556 -2.51502,2.0865 -5.2536,3.2043 -2.73858,1.1178 -6.33414,1.7698 -3.59555,0.6521 -6.39002,0.8197 -2.79447,0.1677 -6.22236,0.1677 -2.90625,0 -5.29086,-0.1118 -2.38462,-0.1118 -5.49579,-0.4657 -3.11118,-0.354 -5.6821,-1.1178 -2.57091,-0.7638 -5.10456,-1.9189 -2.53366,-1.155 -4.50842,-3.018 -1.97476,-1.863 -3.20432,-4.2849 Q 1,1031.093 1,1023.3429 q 0,-8.8305 5.06731,-14.7547 -1.00601,-3.0553 -1.00601,-6.3342 0,-4.32215 1.90024,-8.12255 4.02404,0 7.07933,1.4717 3.05528,1.4718 7.04206,4.60165 5.47717,-1.30415 11.51322,-1.30415 5.51443,0 10.4327,1.19225 3.91226,-3.05525 6.96754,-4.50835 3.05529,-1.4531 7.04207,-1.4531 1.90024,3.8004 1.90024,8.12255 0,3.2416 -1.00601,6.2597 Q 63,1014.4751 63,1023.3429 Z"
       inkscape:connector-curvature="0"
       style="fill:#73c8a9;fill-opacity:1" />
  </g>
</svg>
